<svg xmlns="http://www.w3.org/2000/svg" viewBox="0 0 334 706"><defs><style>.cls-1{fill:#cc6a00;}.cls-2{fill:#b55600;}.cls-3{fill:#00dd1a;}.cls-4{fill:#00d122;}.cls-5{fill:#04b50d;}</style></defs><g id="Layer_2" data-name="Layer 2"><g id="Layer_1-2" data-name="Layer 1"><rect class="cls-1" x="150" y="416" width="16.5" height="290"/><rect class="cls-2" x="166.5" y="416" width="16.5" height="290"/><polygon class="cls-3" points="167 457 0 457 84 290 167 290 167 457"/><polygon class="cls-4" points="167 457 334 457 250 290 167 290 167 457"/><polygon class="cls-3" points="167 309 38 309 102.89 180 167 180 167 309"/><polygon class="cls-4" points="167 309 296 309 231.11 180 167 180 167 309"/><polygon class="cls-3" points="167 197 68 197 117.8 98 167 0 167 197"/><polygon class="cls-4" points="167 197 266 197 216.2 98 167 0 167 197"/><polygon class="cls-5" points="124 161 111 161 117.59 148 117.59 148 124 161"/><polygon class="cls-5" points="147 183 134 183 140.59 170 140.59 170 147 183"/><polygon class="cls-5" points="119 206 106 206 112.59 193 112.59 193 119 206"/><polygon class="cls-5" points="146 266 133 266 139.59 253 139.59 253 146 266"/><polygon class="cls-5" points="101 300 88 300 94.59 287 94.59 287 101 300"/><polygon class="cls-5" points="154 331 141 331 147.59 318 147.59 318 154 331"/><polygon class="cls-5" points="75 391 62 391 68.59 378 68.59 378 75 391"/><polygon class="cls-5" points="150 438 137 438 143.59 425 143.59 425 150 438"/><polygon class="cls-5" points="64 445 51 445 57.59 432 57.59 432 64 445"/><polygon class="cls-5" points="250 443 237 443 243.59 430 243.59 430 250 443"/><polygon class="cls-5" points="196 411 183 411 189.59 398 189.59 398 196 411"/><polygon class="cls-5" points="231 371 218 371 224.59 358 224.59 358 231 371"/><polygon class="cls-5" points="253 340 240 340 246.59 327 246.59 327 253 340"/><polygon class="cls-5" points="202 283 189 283 195.59 270 195.59 270 202 283"/><polygon class="cls-5" points="231 266 218 266 224.59 253 224.59 253 231 266"/><polygon class="cls-5" points="281 304 268 304 274.59 291 274.59 291 281 304"/><polygon class="cls-5" points="189 208 176 208 182.59 195 182.59 195 189 208"/><polygon class="cls-5" points="215 161 202 161 208.59 148 208.59 148 215 161"/><polygon class="cls-5" points="192 86 179 86 185.59 73 185.59 73 192 86"/><polygon class="cls-5" points="231 193 218 193 224.59 180 224.59 180 231 193"/><polygon class="cls-5" points="90 269 77 269 83.59 256 83.59 256 90 269"/></g></g></svg>